<svg width="20" height="20" viewBox="0 0 20 20" fill="none" xmlns="http://www.w3.org/2000/svg">
<path d="M14.5001 2C14.3675 2 14.2404 2.05268 14.1466 2.14645C14.0528 2.24021 14.0001 2.36739 14.0001 2.5C14.0001 2.63261 14.0528 2.75979 14.1466 2.85355C14.2404 2.94732 14.3675 3 14.5001 3H16.2931L11.5001 7.793L8.85414 5.146C8.8077 5.09944 8.75252 5.06249 8.69178 5.03729C8.63103 5.01208 8.56591 4.99911 8.50014 4.99911C8.43438 4.99911 8.36926 5.01208 8.30851 5.03729C8.24776 5.06249 8.19259 5.09944 8.14614 5.146L3.14614 10.146C3.05226 10.2399 2.99951 10.3672 2.99951 10.5C2.99951 10.6328 3.05226 10.7601 3.14614 10.854C3.24003 10.9479 3.36737 11.0006 3.50014 11.0006C3.63292 11.0006 3.76026 10.9479 3.85414 10.854L8.50014 6.207L11.1461 8.854C11.1926 8.90056 11.2478 8.93751 11.3085 8.96271C11.3693 8.98792 11.4344 9.00089 11.5001 9.00089C11.5659 9.00089 11.631 8.98792 11.6918 8.96271C11.7525 8.93751 11.8077 8.90056 11.8541 8.854L17.0001 3.707V5.5C17.0001 5.63261 17.0528 5.75979 17.1466 5.85355C17.2404 5.94732 17.3675 6 17.5001 6C17.6328 6 17.7599 5.94732 17.8537 5.85355C17.9475 5.75979 18.0001 5.63261 18.0001 5.5V2.5C18.0001 2.36739 17.9475 2.24021 17.8537 2.14645C17.7599 2.05268 17.6328 2 17.5001 2H14.5001ZM15.5001 9C15.3675 9 15.2404 9.05268 15.1466 9.14645C15.0528 9.24021 15.0001 9.36739 15.0001 9.5V17.5C15.0001 17.6326 15.0528 17.7598 15.1466 17.8536C15.2404 17.9473 15.3675 18 15.5001 18C15.6328 18 15.7599 17.9473 15.8537 17.8536C15.9475 17.7598 16.0001 17.6326 16.0001 17.5V9.5C16.0001 9.36739 15.9475 9.24021 15.8537 9.14645C15.7599 9.05268 15.6328 9 15.5001 9ZM7.50014 11C7.36753 11 7.24036 11.0527 7.14659 11.1464C7.05282 11.2402 7.00014 11.3674 7.00014 11.5V17.5C7.00014 17.6326 7.05282 17.7598 7.14659 17.8536C7.24036 17.9473 7.36753 18 7.50014 18C7.63275 18 7.75993 17.9473 7.8537 17.8536C7.94746 17.7598 8.00014 17.6326 8.00014 17.5V11.5C8.00014 11.3674 7.94746 11.2402 7.8537 11.1464C7.75993 11.0527 7.63275 11 7.50014 11ZM11.0001 13.5C11.0001 13.3674 11.0528 13.2402 11.1466 13.1464C11.2404 13.0527 11.3675 13 11.5001 13C11.6328 13 11.7599 13.0527 11.8537 13.1464C11.9475 13.2402 12.0001 13.3674 12.0001 13.5V17.5C12.0001 17.6326 11.9475 17.7598 11.8537 17.8536C11.7599 17.9473 11.6328 18 11.5001 18C11.3675 18 11.2404 17.9473 11.1466 17.8536C11.0528 17.7598 11.0001 17.6326 11.0001 17.5V13.5ZM3.00014 14.5C3.00014 14.3674 3.05282 14.2402 3.14659 14.1464C3.24036 14.0527 3.36754 14 3.50014 14C3.63275 14 3.75993 14.0527 3.8537 14.1464C3.94746 14.2402 4.00014 14.3674 4.00014 14.5V17.5C4.00014 17.6326 3.94746 17.7598 3.8537 17.8536C3.75993 17.9473 3.63275 18 3.50014 18C3.36754 18 3.24036 17.9473 3.14659 17.8536C3.05282 17.7598 3.00014 17.6326 3.00014 17.5V14.5Z" fill="#717174"/>
</svg>
