<svg width="20" height="20" viewBox="0 0 20 20" fill="none" xmlns="http://www.w3.org/2000/svg">
<path d="M10 1.25C5.16797 1.25 1.25 5.16797 1.25 10C1.25 14.832 5.16797 18.75 10 18.75C14.832 18.75 18.75 14.832 18.75 10C18.75 5.16797 14.832 1.25 10 1.25ZM10 17.2656C5.98828 17.2656 2.73438 14.0117 2.73438 10C2.73438 5.98828 5.98828 2.73438 10 2.73438C14.0117 2.73438 17.2656 5.98828 17.2656 10C17.2656 14.0117 14.0117 17.2656 10 17.2656Z" fill="#717174"/>
<path d="M14.0508 9.74807L8.26758 5.54885C8.2212 5.51485 8.16629 5.4944 8.10896 5.48978C8.05164 5.48515 7.99416 5.49653 7.94292 5.52266C7.89169 5.54878 7.84871 5.58862 7.81879 5.63773C7.78886 5.68684 7.77317 5.7433 7.77344 5.80081V14.1992C7.77344 14.4551 8.0625 14.5996 8.26758 14.4512L14.0508 10.252C14.0907 10.2232 14.1232 10.1854 14.1457 10.1416C14.1681 10.0977 14.1798 10.0492 14.1798 10C14.1798 9.95081 14.1681 9.9023 14.1457 9.8585C14.1232 9.81469 14.0907 9.77684 14.0508 9.74807ZM9.01953 12.3653V7.63479L12.2754 10L9.01953 12.3653Z" fill="#717174"/>
</svg>
