<svg width="20" height="20" viewBox="0 0 20 20" fill="none" xmlns="http://www.w3.org/2000/svg">
<path d="M18.15 5.93969C18.61 7.55969 18.53 9.15969 18.13 10.4197C17.71 11.6997 16.87 12.5997 15.83 12.8997C15.67 12.9597 15.57 12.9597 15.43 12.9597C15.37 12.9797 15.31 12.9797 15.25 12.9797C15.19 12.9997 15.11 12.9997 15.03 12.9997H8.22999L10.45 18.4997C10.47 18.6397 10.39 18.7597 10.31 18.8397C10.23 18.9397 10.07 18.9997 9.96999 18.9997H6.94999C6.84999 18.9997 6.68999 18.9397 6.60999 18.8397C6.52999 18.7597 6.44999 18.6397 6.46999 18.4997L5.46999 12.9997H4.24999L4.22999 12.9797C3.72999 13.0397 3.14999 12.7997 2.68999 12.3597C2.22999 11.9197 1.80999 11.2797 1.62999 10.4797C1.38999 9.67969 1.42999 8.91969 1.60999 8.27969C1.78999 7.65969 2.18999 7.19969 2.66999 6.97969L2.68999 6.95969L11.69 1.55969C11.79 1.49969 11.87 1.45969 11.93 1.39969C11.99 1.35969 12.07 1.31969 12.17 1.27969C12.33 1.19969 12.45 1.15969 12.67 1.09969C13.71 0.799687 14.91 1.19969 15.89 2.07969C16.87 2.95969 17.73 4.31969 18.15 5.93969ZM15.57 11.9197H15.55C15.95 11.8197 16.29 11.5797 16.59 11.2197C17.17 10.5197 17.45 9.45969 17.45 8.17969C17.45 7.53969 17.35 6.87969 17.17 6.19969C16.83 4.83969 16.15 3.69969 15.39 2.95969C14.63 2.21969 13.71 1.85969 12.93 2.07969C12.11 2.29969 11.53 3.03969 11.23 4.07969C10.91 5.11969 10.95 6.43969 11.29 7.79969C11.67 9.15969 12.29 10.2997 13.09 11.0397C13.87 11.7797 14.71 12.1397 15.57 11.9197ZM13.03 4.83969C13.25 4.79969 13.45 4.81969 13.65 4.87969C14.03 5.03969 14.41 5.35969 14.67 5.87969C14.93 6.39969 15.09 7.07969 15.09 7.65969C15.09 7.95969 15.05 8.21969 14.97 8.45969C14.79 8.93969 14.53 9.29969 14.11 9.39969C13.77 9.49969 13.31 9.33969 12.97 8.99969C12.63 8.65969 12.33 8.13969 12.19 7.49969C12.01 6.87969 12.07 6.25969 12.21 5.77969C12.35 5.29969 12.69 4.93969 13.03 4.83969Z" fill="#FE5C92"/>
</svg>
