<svg width="20" height="20" viewBox="0 0 20 20" fill="none" xmlns="http://www.w3.org/2000/svg">
<path d="M18.3333 2.5H16.6667V1.66667C16.6662 1.22477 16.4905 0.801108 16.178 0.488643C15.8656 0.176178 15.4419 0.000441231 15 0H5C4.55811 0.000441231 4.13444 0.176178 3.82198 0.488643C3.50951 0.801108 3.33377 1.22477 3.33333 1.66667V2.5H1.66667C1.22477 2.50044 0.801108 2.67618 0.488643 2.98864C0.176178 3.30111 0.000441231 3.72477 0 4.16667V6.66667C0.00110258 7.55038 0.352646 8.39759 0.977528 9.02247C1.60241 9.64735 2.44962 9.9989 3.33333 10H3.60167C3.94892 11.2756 4.66008 12.4225 5.64832 13.3006C6.63655 14.1787 7.85909 14.7501 9.16667 14.945V18.3333H5V20H15V18.3333H10.8333V14.9425C12.1579 14.7788 13.4023 14.2196 14.4043 13.3379C15.4062 12.4562 16.1191 11.293 16.45 10H16.6667C17.5504 9.9989 18.3976 9.64735 19.0225 9.02247C19.6474 8.39759 19.9989 7.55038 20 6.66667V4.16667C19.9996 3.72477 19.8238 3.30111 19.5114 2.98864C19.1989 2.67618 18.7752 2.50044 18.3333 2.5ZM3.33333 8.33333C2.89144 8.33289 2.46777 8.15716 2.15531 7.84469C1.84284 7.53223 1.66711 7.10856 1.66667 6.66667V4.16667H3.33333V8.33333ZM15 8.33333C15 9.00298 14.8655 9.6658 14.6044 10.2825C14.3433 10.8991 13.9611 11.4571 13.4803 11.9232C12.9995 12.3893 12.4299 12.7541 11.8055 12.9959C11.181 13.2377 10.5143 13.3516 9.845 13.3308C8.51816 13.2482 7.27421 12.6574 6.37184 11.6811C5.46947 10.7049 4.97813 9.4184 5 8.08917V1.66667H15V8.33333ZM18.3333 6.66667C18.3329 7.10856 18.1572 7.53223 17.8447 7.84469C17.5322 8.15716 17.1086 8.33289 16.6667 8.33333V4.16667H18.3333V6.66667Z" fill="#717174"/>
</svg>
