<svg width="25" height="25" viewBox="0 0 25 25" fill="none" xmlns="http://www.w3.org/2000/svg">
<path d="M9.37589 0.433334C9.52842 0.618673 9.62187 0.845495 9.64415 1.08449C9.66644 1.32349 9.61654 1.56367 9.5009 1.77401C8.59747 3.43264 8.12566 5.29181 8.12889 7.18049C8.12889 13.4636 13.2513 18.5513 19.5643 18.5513C20.3879 18.5513 21.1895 18.4653 21.9599 18.3013C22.196 18.2501 22.442 18.2697 22.6671 18.3575C22.8922 18.4453 23.0865 18.5975 23.2256 18.795C23.3725 19.0004 23.4474 19.2486 23.4386 19.501C23.4299 19.7533 23.338 19.9957 23.1772 20.1904C21.9516 21.6958 20.4054 22.9088 18.6515 23.7408C16.8976 24.5729 14.98 25.0031 13.0387 25C5.83493 25 0 19.1966 0 12.0463C0 6.66484 3.30344 2.04903 8.00701 0.0926944C8.24131 -0.00632247 8.50141 -0.0266452 8.74825 0.0347789C8.99508 0.0962031 9.21532 0.236058 9.37589 0.433334V0.433334Z" fill="#717171"/>
<path d="M16.8673 4.91747C16.8897 4.8498 16.9328 4.79092 16.9906 4.74918C17.0484 4.70744 17.1179 4.68498 17.1892 4.68498C17.2605 4.68498 17.3299 4.70744 17.3877 4.74918C17.4455 4.79092 17.4887 4.8498 17.5111 4.91747L18.1158 6.73317C18.3862 7.54258 19.0206 8.17698 19.83 8.44731L21.6458 9.05202C21.7135 9.07442 21.7724 9.11759 21.8141 9.17537C21.8559 9.23316 21.8783 9.30263 21.8783 9.37391C21.8783 9.44519 21.8559 9.51466 21.8141 9.57244C21.7724 9.63023 21.7135 9.67339 21.6458 9.69579L19.83 10.3005C19.4308 10.4335 19.0681 10.6577 18.7705 10.9552C18.473 11.2527 18.2488 11.6154 18.1158 12.0146L17.5111 13.8303C17.4887 13.898 17.4455 13.9569 17.3877 13.9986C17.3299 14.0404 17.2605 14.0628 17.1892 14.0628C17.1179 14.0628 17.0484 14.0404 16.9906 13.9986C16.9328 13.9569 16.8897 13.898 16.8673 13.8303L16.2625 12.0146C16.1295 11.6154 15.9054 11.2527 15.6078 10.9552C15.3103 10.6577 14.9475 10.4335 14.5483 10.3005L12.7325 9.69579C12.6648 9.67339 12.6059 9.63023 12.5642 9.57244C12.5225 9.51466 12.5 9.44519 12.5 9.37391C12.5 9.30263 12.5225 9.23316 12.5642 9.17537C12.6059 9.11759 12.6648 9.07442 12.7325 9.05202L14.5483 8.44731C14.9475 8.3143 15.3103 8.09016 15.6078 7.79263C15.9054 7.4951 16.1295 7.13237 16.2625 6.73317L16.8673 4.91747V4.91747ZM21.663 0.153209C21.6785 0.108717 21.7074 0.0701364 21.7457 0.0428316C21.7841 0.0155268 21.83 0.000854492 21.8771 0.000854492C21.9242 0.000854492 21.9701 0.0155268 22.0085 0.0428316C22.0469 0.0701364 22.0758 0.108717 22.0912 0.153209L22.4944 1.36263C22.6741 1.90328 23.0975 2.32674 23.6382 2.50643L24.8477 2.90957C24.8922 2.925 24.9308 2.9539 24.9581 2.99227C24.9854 3.03064 25.0001 3.07656 25.0001 3.12365C25.0001 3.17074 24.9854 3.21666 24.9581 3.25502C24.9308 3.29339 24.8922 3.32229 24.8477 3.33772L23.6382 3.74086C23.3718 3.82949 23.1297 3.97902 22.9311 4.17757C22.7325 4.37612 22.583 4.61822 22.4944 4.88466L22.0912 6.09408C22.0758 6.13857 22.0469 6.17715 22.0085 6.20446C21.9701 6.23176 21.9242 6.24644 21.8771 6.24644C21.83 6.24644 21.7841 6.23176 21.7457 6.20446C21.7074 6.17715 21.6785 6.13857 21.663 6.09408L21.2599 4.88466C21.1712 4.61822 21.0217 4.37612 20.8231 4.17757C20.6246 3.97902 20.3825 3.82949 20.116 3.74086L18.9065 3.33772C18.862 3.32229 18.8234 3.29339 18.7961 3.25502C18.7688 3.21666 18.7542 3.17074 18.7542 3.12365C18.7542 3.07656 18.7688 3.03064 18.7961 2.99227C18.8234 2.9539 18.862 2.925 18.9065 2.90957L20.116 2.50643C20.6567 2.32674 21.0802 1.90328 21.2599 1.36263L21.663 0.154771V0.153209Z" fill="#717171"/>
</svg>
