<svg width="25" height="25" viewBox="0 0 25 25" fill="none" xmlns="http://www.w3.org/2000/svg">
<path d="M19.3511 1.5625H12.8906L17.0015 7.04395L19.3511 1.5625Z" fill="#717171"/>
<path d="M5.64893 1.5625L7.99853 7.04395L12.1094 1.5625H5.64893Z" fill="#717171"/>
<path d="M12.5 3.646L9.375 7.8125H15.625L12.5 3.646Z" fill="#717171"/>
<path d="M20.6519 2.49316L18.3721 7.8125H23.8281L20.6519 2.49316Z" fill="#717171"/>
<path d="M4.34814 2.49316L1.12305 7.8125H6.62793L4.34814 2.49316Z" fill="#717171"/>
<path d="M7.16211 9.375H1.17188L12.0508 23.4375H12.0767L7.16211 9.375Z" fill="#717171"/>
<path d="M17.8379 9.375L12.9233 23.4375H12.9492L23.8281 9.375H17.8379Z" fill="#717171"/>
<path d="M16.0835 9.375H8.9165L12.5 19.5312L16.0835 9.375Z" fill="#717171"/>
</svg>
