<svg width="20" height="20" viewBox="0 0 20 20" fill="none" xmlns="http://www.w3.org/2000/svg">
<path d="M10.4401 3.01995L12.2601 1.19995L18.6201 7.54997L16.7901 9.36997C16.266 9.03147 15.6419 8.88257 15.0215 8.94807C14.4011 9.01357 13.8219 9.2895 13.3801 9.72997L12.6301 10.48C11.7101 11.41 11.5901 12.83 12.2801 13.89L10.4501 15.71L8.04007 13.3L5.24007 16.09C4.82007 16.51 1.86006 18.7999 1.44006 18.3799C1.02006 17.9599 3.30006 14.99 3.72007 14.57L6.51007 11.78L4.10007 9.35997L5.93007 7.53997C6.98007 8.22997 8.41007 8.10997 9.33007 7.17997L10.0801 6.42997C11.0101 5.50997 11.1301 4.07997 10.4401 3.01995Z" fill="#717171"/>
</svg>
