<svg width="20" height="20" viewBox="0 0 20 20" fill="none" xmlns="http://www.w3.org/2000/svg">
<path d="M11.7168 8.28329L10.0002 7.49996L11.7168 6.71663L12.5002 4.99996L13.2835 6.71663L15.0002 7.49996L13.2835 8.28329L12.5002 9.99996L11.7168 8.28329ZM3.3335 11.6666L4.11683 9.94996L5.8335 9.16663L4.11683 8.38329L3.3335 6.66663L2.55016 8.38329L0.833496 9.16663L2.55016 9.94996L3.3335 11.6666ZM7.0835 7.49996L7.99183 5.49163L10.0002 4.58329L7.99183 3.67496L7.0835 1.66663L6.17516 3.67496L4.16683 4.58329L6.17516 5.49163L7.0835 7.49996ZM3.75016 17.0833L8.75016 12.075L12.0835 15.4083L19.1668 7.44163L17.9918 6.26663L12.0835 12.9083L8.75016 9.57496L2.50016 15.8333L3.75016 17.0833Z" fill="#717174"/>
</svg>
