<svg width="20" height="20" viewBox="0 0 20 20" fill="none" xmlns="http://www.w3.org/2000/svg">
<path d="M5 6.5C5 6.36739 5.05268 6.24021 5.14645 6.14645C5.24021 6.05268 5.36739 6 5.5 6H12.5C12.6326 6 12.7598 6.05268 12.8536 6.14645C12.9473 6.24021 13 6.36739 13 6.5C13 6.63261 12.9473 6.75979 12.8536 6.85355C12.7598 6.94732 12.6326 7 12.5 7H5.5C5.36739 7 5.24021 6.94732 5.14645 6.85355C5.05268 6.75979 5 6.63261 5 6.5Z" fill="#717174"/>
<path d="M10.5 9C10.3674 9 10.2402 9.05268 10.1464 9.14645C10.0527 9.24021 10 9.36739 10 9.5C10 9.63261 10.0527 9.75979 10.1464 9.85355C10.2402 9.94732 10.3674 10 10.5 10H12.5C12.6326 10 12.7598 9.94732 12.8536 9.85355C12.9473 9.75979 13 9.63261 13 9.5C13 9.36739 12.9473 9.24021 12.8536 9.14645C12.7598 9.05268 12.6326 9 12.5 9H10.5Z" fill="#717174"/>
<path d="M10 12.5C10 12.3674 10.0527 12.2402 10.1464 12.1464C10.2402 12.0527 10.3674 12 10.5 12H12.5C12.6326 12 12.7598 12.0527 12.8536 12.1464C12.9473 12.2402 13 12.3674 13 12.5C13 12.6326 12.9473 12.7598 12.8536 12.8536C12.7598 12.9473 12.6326 13 12.5 13H10.5C10.3674 13 10.2402 12.9473 10.1464 12.8536C10.0527 12.7598 10 12.6326 10 12.5Z" fill="#717174"/>
<path d="M5.5 9C5.36739 9 5.24021 9.05268 5.14645 9.14645C5.05268 9.24021 5 9.36739 5 9.5V12.5C5 12.6326 5.05268 12.7598 5.14645 12.8536C5.24021 12.9473 5.36739 13 5.5 13H8.5C8.63261 13 8.75979 12.9473 8.85355 12.8536C8.94732 12.7598 9 12.6326 9 12.5V9.5C9 9.36739 8.94732 9.24021 8.85355 9.14645C8.75979 9.05268 8.63261 9 8.5 9H5.5ZM6 12V10H8V12H6Z" fill="#717174"/>
<path d="M2 5C2 4.46957 2.21071 3.96086 2.58579 3.58579C2.96086 3.21071 3.46957 3 4 3H14C14.5304 3 15.0391 3.21071 15.4142 3.58579C15.7893 3.96086 16 4.46957 16 5V6C16.5304 6 17.0391 6.21071 17.4142 6.58579C17.7893 6.96086 18 7.46957 18 8V13.5C18 14.163 17.7366 14.7989 17.2678 15.2678C16.7989 15.7366 16.163 16 15.5 16H4.5C3.83696 16 3.20107 15.7366 2.73223 15.2678C2.26339 14.7989 2 14.163 2 13.5V5ZM15 5C15 4.73478 14.8946 4.48043 14.7071 4.29289C14.5196 4.10536 14.2652 4 14 4H4C3.73478 4 3.48043 4.10536 3.29289 4.29289C3.10536 4.48043 3 4.73478 3 5V13.5C3 13.8978 3.15804 14.2794 3.43934 14.5607C3.72064 14.842 4.10218 15 4.5 15H15.5C15.8978 15 16.2794 14.842 16.5607 14.5607C16.842 14.2794 17 13.8978 17 13.5V8C17 7.73478 16.8946 7.48043 16.7071 7.29289C16.5196 7.10536 16.2652 7 16 7V13.5C16 13.6326 15.9473 13.7598 15.8536 13.8536C15.7598 13.9473 15.6326 14 15.5 14C15.3674 14 15.2402 13.9473 15.1464 13.8536C15.0527 13.7598 15 13.6326 15 13.5V5Z" fill="#717174"/>
</svg>
