<svg width="20" height="20" viewBox="0 0 20 20" fill="none" xmlns="http://www.w3.org/2000/svg">
<path d="M19.1665 6.24998L13.7748 5.79998L11.6665 0.833313L9.55813 5.79998L4.16646 6.24998L8.24979 9.80831L7.03313 15.0833L11.6665 12.2833L16.2998 15.0833L15.0748 9.80831L19.1665 6.24998ZM13.4498 10.1916L13.7831 11.6166L12.5248 10.8583L11.6665 10.3416L10.8081 10.8583L9.54979 11.6166L9.87479 10.1916L10.1081 9.20831L9.34979 8.54998L8.23313 7.58331L9.69979 7.45831L10.6998 7.37498L11.0915 6.44998L11.6665 5.09998L12.2415 6.44998L12.6331 7.37498L13.6331 7.45831L15.0915 7.58331L13.9831 8.54998L13.2165 9.20831L13.4498 10.1916ZM0.96646 9.99998C0.717294 9.58331 0.82396 9.07498 1.20813 8.82498L3.48313 7.32498L4.79146 8.45831L2.12479 10.2166C1.98313 10.3083 1.82479 10.3583 1.66646 10.3583C1.39979 10.3583 1.13313 10.225 0.96646 9.99998ZM1.20813 16.8L6.09146 13.5916L5.83313 14.8L5.54979 15.9416L2.12479 18.2C1.98313 18.2916 1.82479 18.3333 1.66646 18.3333C1.39979 18.3333 1.13313 18.2 0.96646 17.9583C0.846863 17.7721 0.805177 17.5464 0.850377 17.3297C0.895576 17.1131 1.02405 16.9228 1.20813 16.8ZM6.09979 9.58331L6.86646 10.2583L6.64146 11.25L2.12479 14.2083C1.98313 14.3 1.82479 14.3416 1.66646 14.3416C1.39979 14.3416 1.13313 14.2166 0.96646 13.9666C0.846644 13.7819 0.804807 13.5573 0.850089 13.3418C0.89537 13.1263 1.02409 12.9375 1.20813 12.8166L6.09979 9.58331Z" fill="#717174"/>
</svg>
