<svg width="37" height="59" viewBox="0 0 37 59" fill="none" xmlns="http://www.w3.org/2000/svg">
<path d="M23.8987 47.2959C24.1079 47.3367 24.3211 47.3566 24.5095 47.3441C24.7087 47.3284 24.8971 47.2785 25.0755 47.2179C25.2523 47.1481 25.4157 47.0583 25.5651 46.9495C25.7103 46.834 25.8415 46.7044 25.9552 46.5607L27.4398 44.6805L26.4946 47.0027C26.4315 47.1589 26.3908 47.3209 26.3228 47.4654C26.2863 47.6258 26.229 47.7745 26.1469 47.9207C26.1037 47.9938 26.0937 48.0736 26.0539 48.1492C26.0215 48.2265 25.9859 48.3054 25.9419 48.3852C25.902 48.4657 25.8838 48.5447 25.8448 48.6319C25.8025 48.7183 25.7726 48.8089 25.717 48.9086L25.6348 48.9227C25.5718 48.8379 25.5336 48.7441 25.4838 48.646C25.4456 48.5488 25.3933 48.4416 25.3825 48.3403C25.3576 48.1376 25.3444 47.9216 25.3676 47.7147C25.4074 47.5128 25.4589 47.3076 25.556 47.1248C25.663 46.9445 25.7991 46.7825 25.912 46.6139L26.4514 47.0567C26.2606 47.2021 26.0639 47.3342 25.8489 47.4372C25.6315 47.5352 25.4049 47.6009 25.1742 47.6382C24.9402 47.6623 24.7103 47.6466 24.4888 47.6034C24.2572 47.551 24.0639 47.4713 23.8755 47.3757L23.8987 47.2959Z" fill="#717171"/>
<path d="M22.7767 23.3295C23.9552 22.0558 24.8572 20.4673 25.0655 18.7243C25.2796 16.938 24.7469 15.1725 23.8954 13.6156C24.6224 13.9728 25.3518 14.3268 26.0813 14.6765C25.6854 12.9177 24.3518 11.8725 22.8174 11.0916C22.9419 10.358 25.6041 10.5889 26.9975 10.3355C24.8879 8.72707 22.7593 8.51687 19.9079 9.34602C19.6307 7.68772 22.3991 6.15071 24.2498 5.41876C23.1369 5.39799 22.0979 5.30328 20.9991 5.54837C19.9842 5.77518 19.0083 6.1748 18.156 6.77631C17.2904 7.38779 16.6904 8.22525 15.961 8.97963C15.1908 9.77306 13.5635 10.0198 13.434 11.1165C13.2846 12.3835 11.5701 12.2572 10.834 13.0913C10.4805 13.491 10.5585 13.9753 10.2489 14.409C9.92777 14.8585 9.14686 15.2498 8.93607 15.7624C8.55516 16.6854 8.83233 17.6849 9.40163 18.4626C9.54105 18.6536 9.69624 18.8323 9.86387 18.9993C9.94686 19.0823 10.034 19.1629 10.1236 19.2394C10.2647 19.3615 10.2871 19.2427 10.3958 19.1255C10.7767 18.7218 10.9211 17.7057 11.3535 17.3551C12.2008 16.6688 13.4523 16.8441 14.5286 16.7594C15.5112 16.6829 16.4365 16.3955 17.122 15.6561C17.4606 15.288 17.7311 14.9017 18.1676 14.6375C18.5983 14.3766 19.1095 14.2445 19.6132 14.3126C20.6116 14.4439 21.2265 15.3104 21.3917 16.2534C21.5842 17.3534 21.0157 18.2798 20.4224 19.1579C19.8547 19.9987 19.1966 20.7008 18.4041 21.3272C16.8937 22.5169 15.3668 23.6884 13.9319 24.972C10.7842 27.7926 6.99914 31.8553 7.92362 36.4862C8.11615 37.4516 8.47632 38.3672 9.04395 39.1714C9.61491 39.9782 10.3535 40.6611 11.1884 41.187C10.9228 42.3393 10.8315 43.4767 10.8738 44.6548C10.9162 45.8396 11.3045 47.0924 11.8464 48.1326C12.722 49.8108 14.234 50.969 16.0846 51.3603C17.9294 51.75 19.8605 51.3395 21.5601 50.5943C23.2348 49.8624 24.551 48.7025 25.6921 47.2985C24.444 48.7349 22.9817 49.7469 21.2116 50.4364C19.4871 51.1086 17.3958 51.293 15.639 50.6475C14.7327 50.3135 13.9245 49.7519 13.3195 48.9958C12.6821 48.1974 12.3693 47.2852 12.0888 46.3181C11.7386 44.7911 11.839 43.264 12.2365 41.747C15.3502 43.1278 19.1867 42.8993 22.2987 41.6381C24.6332 40.6918 26.8315 38.8117 27.6688 36.3625C28.0854 35.1453 28.2871 33.698 27.8049 32.4601C27.0921 30.6282 25.4987 29.5639 23.5568 29.3803C19.8514 29.0297 16.6049 31.5371 14.4688 34.3427C13.629 35.4444 12.9211 36.6408 12.3361 37.8945C12.0962 37.6461 11.8904 37.3669 11.7294 37.062C11.6954 37.0038 11.6788 36.9498 11.644 36.9141C11.5933 36.6807 11.4315 36.3708 11.4025 36.0966C11.3278 35.3389 11.3668 34.6601 11.6166 33.9365C12.1162 32.4992 13.1518 31.287 14.195 30.2144C16.2531 28.1033 18.7369 26.4591 21.1261 24.7593L22.7767 23.3295ZM25.7502 34.0486C25.7734 35.6471 24.5377 37.1127 23.3518 38.0124C21.5402 39.3883 19.1859 39.6791 16.9817 39.6791C16.4747 39.6791 15.5618 39.522 14.9585 39.3542C14.4904 39.2263 14.0315 39.056 13.6 38.8316C13.4489 38.7569 13.3776 38.7785 13.4655 38.6065C13.5269 38.486 13.59 38.368 13.6547 38.2492C13.8025 37.9734 13.9576 37.7026 14.122 37.4359C14.863 36.227 15.7543 35.0896 16.7801 34.1109C18.2257 32.7318 19.9908 31.5961 22.0108 31.3601C23.5211 31.1848 25.2971 31.714 25.7012 33.3366C25.7444 33.5701 25.7684 33.8118 25.7502 34.0486Z" fill="#717171"/>
<path d="M14.1873 13.8024C14.6847 13.5981 15.0366 13.3075 14.9735 13.1534C14.9103 12.9993 14.4559 13.0401 13.9585 13.2444C13.4612 13.4488 13.1092 13.7394 13.1724 13.8935C13.2356 14.0476 13.69 14.0068 14.1873 13.8024Z" fill="white"/>
<path d="M35.195 48.8995C35.195 53.2812 31.6473 56.8338 27.2697 56.8338H9.92531C5.54855 56.8338 2 53.282 2 48.8995V9.93428C2 5.55256 5.54772 2 9.92531 2H27.2697C31.6465 2 35.195 5.55173 35.195 9.93428V48.8995Z" stroke="#717171" stroke-width="3" stroke-miterlimit="10"/>
</svg>
